<?xml version="1.0" standalone="no"?>
<!DOCTYPE svg PUBLIC "-//W3C//DTD SVG 20010904//EN"
 "http://www.w3.org/TR/2001/REC-SVG-20010904/DTD/svg10.dtd">
<svg version="1.0" xmlns="http://www.w3.org/2000/svg"
 width="300.000000pt" height="300.000000pt" viewBox="0 0 300.000000 300.000000"
 preserveAspectRatio="xMidYMid meet">
<metadata>
Created by potrace 1.11, written by Peter Selinger 2001-2013
</metadata>
<g transform="translate(0.000000,300.000000) scale(0.100000,-0.100000)"
fill="#000000" stroke="none">
<path d="M1667 2235 c-1 -2 -27 -5 -57 -9 -30 -3 -82 -12 -115 -21 -75 -18
-85 -18 -85 -2 0 10 -23 12 -102 10 -153 -5 -167 -14 -173 -111 -2 -42 -9 -54
-60 -106 -62 -65 -108 -148 -136 -244 -24 -85 -20 -268 10 -406 20 -92 103
-396 121 -441 6 -17 -2 -30 -40 -68 -26 -26 -53 -60 -59 -76 -13 -30 -33 -43
-96 -60 -105 -28 -173 -189 -121 -289 8 -16 29 -42 46 -59 30 -29 31 -33 31
-114 0 -76 -15 -147 -46 -222 -7 -16 26 -17 651 -15 l659 3 0 62 0 62 17 -32
c9 -18 17 -39 18 -48 1 -39 32 -49 148 -49 l111 0 -40 74 c-37 69 -66 139 -74
177 -2 9 -7 32 -12 50 -13 48 -11 53 19 87 104 117 76 274 -66 372 -44 29 -76
40 -130 43 -22 2 -34 10 -47 34 -10 18 -15 35 -10 37 8 5 -19 162 -39 236 -19
65 -71 295 -78 340 -4 25 -7 93 -7 151 0 96 3 109 25 143 33 48 77 67 175 73
44 2 83 7 87 11 19 19 8 103 -27 203 -41 118 -93 160 -230 189 -49 10 -259 22
-268 15z"/>
</g>
</svg>
